PathFileType	4	(X/Y/Z)	 staticP091.trc
DataRate	CameraRate	NumFrames	NumMarkers	Units	OrigDataRate	OrigDataStartFrame	OrigNumFrames
100	100	7	53	M	100	1	100
Frame#	Time	RM1D			RM5D			RM2B			LM1D			LM5D			LM2B			RCAL			LCAL			RLMAL			LLMAL			RMMAL			LMMAL			RSTL			LSTL			RFLE			RFME			LFME			LFLE			RHFIB			LHFIB			RTTUB			LTTUB			RSSH			LSSH			RTL			LTL			RTAP			RTAD			LTAP			LTAD			RTPP			RTPD			LTPP			LTPD			RPSIS			LPSIS			RASIS			LASIS			T10			T2			IJ			SA			RACR			LACR			RHLE			LHLE			RUSP			LUSP			RCB			LCB			IN			LHME			RHME			
		X1	Y1	Z1	X2	Y2	Z2	X3	Y3	Z3	X4	Y4	Z4	X5	Y5	Z5	X6	Y6	Z6	X7	Y7	Z7	X8	Y8	Z8	X9	Y9	Z9	X10	Y10	Z10	X11	Y11	Z11	X12	Y12	Z12	X13	Y13	Z13	X14	Y14	Z14	X15	Y15	Z15	X16	Y16	Z16	X17	Y17	Z17	X18	Y18	Z18	X19	Y19	Z19	X20	Y20	Z20	X21	Y21	Z21	X22	Y22	Z22	X23	Y23	Z23	X24	Y24	Z24	X25	Y25	Z25	X26	Y26	Z26	X27	Y27	Z27	X28	Y28	Z28	X29	Y29	Z29	X30	Y30	Z30	X31	Y31	Z31	X32	Y32	Z32	X33	Y33	Z33	X34	Y34	Z34	X35	Y35	Z35	X36	Y36	Z36	X37	Y37	Z37	X38	Y38	Z38	X39	Y39	Z39	X40	Y40	Z40	X41	Y41	Z41	X42	Y42	Z42	X43	Y43	Z43	X44	Y44	Z44	X45	Y45	Z45	X46	Y46	Z46	X47	Y47	Z47	X48	Y48	Z48	X49	Y49	Z49	X50	Y50	Z50	X51	Y51	Z51	X52	Y52	Z52	X53	Y53	Z53	
1	0.0100	-0.106482	0.041960	-0.152646	-0.147608	0.028532	-0.089029	-0.157146	0.052594	-0.127943	-0.110485	0.043595	-0.355056	-0.147198	0.024095	-0.428061	-0.159273	0.051322	-0.385114	-0.302403	0.050710	-0.161976	-0.308918	0.049102	-0.357230	-0.255444	0.068713	-0.116878	-0.260632	0.069006	-0.397183	-0.232001	0.088018	-0.196913	-0.238626	0.078850	-0.318570	-0.250367	0.035403	-0.191777	-0.266886	0.038890	-0.329116	-0.201254	0.460991	-0.119488	-0.207632	0.441614	-0.221599	-0.208121	0.453256	-0.288263	-0.204355	0.466727	-0.396090	-0.235683	0.413041	-0.106957	-0.238104	0.412649	-0.411143	-0.187853	0.395430	-0.150523	-0.188001	0.395065	-0.355787	-0.200280	0.305896	-0.164693	-0.210736	0.195863	-0.357138	-0.177693	0.659490	-0.078084	-0.190333	0.663531	-0.430361	-0.074536	0.710320	-0.153371	-0.099316	0.617629	-0.155906	-0.076491	0.716892	-0.356077	-0.102653	0.618552	-0.354577	-0.285382	0.681570	-0.146694	-0.285510	0.606347	-0.150894	-0.283506	0.681803	-0.364852	-0.288207	0.612156	-0.360597	-0.276604	0.971625	-0.195458	-0.278110	0.971917	-0.294934	-0.084853	0.915545	-0.131588	-0.082543	0.927893	-0.359968	-0.253831	1.127470	-0.246995	-0.272553	1.341554	-0.237464	-0.121323	1.338506	-0.239277	-0.095573	1.303251	-0.235163	-0.198667	1.353448	-0.062966	-0.190076	1.375742	-0.413701	-0.204184	1.045089	-0.011996	-0.217187	1.066209	-0.471261	-0.182320	0.843353	0.084702	-0.216578	0.864690	-0.586432	-0.098605	1.489276	-0.180778	-0.112137	1.499775	-0.300343	-0.246167	1.423184	-0.232077	-0.168166	1.050116	-0.432840	-0.161618	1.026224	-0.066661	
2	0.0200	-0.106495	0.041950	-0.152649	-0.147615	0.028537	-0.089028	-0.157135	0.052590	-0.127939	-0.110494	0.043609	-0.355046	-0.147186	0.024083	-0.428065	-0.159245	0.051324	-0.385123	-0.302394	0.050705	-0.161987	-0.308896	0.049088	-0.357220	-0.255447	0.068718	-0.116865	-0.260633	0.069010	-0.397181	-0.231979	0.088014	-0.196910	-0.238653	0.078882	-0.318562	-0.250370	0.035402	-0.191784	-0.266865	0.038888	-0.329108	-0.200325	0.461518	-0.119550	-0.207624	0.441596	-0.221631	-0.208120	0.453263	-0.288272	-0.204373	0.466721	-0.396136	-0.235668	0.413048	-0.106989	-0.238088	0.412647	-0.411177	-0.187871	0.395423	-0.150574	-0.188004	0.395062	-0.355814	-0.200272	0.305894	-0.164721	-0.210714	0.195888	-0.357102	-0.177729	0.659499	-0.078116	-0.190324	0.663511	-0.430420	-0.074531	0.710325	-0.153416	-0.099347	0.617630	-0.155960	-0.076508	0.716882	-0.356112	-0.102668	0.618545	-0.354595	-0.285378	0.681561	-0.146738	-0.285503	0.606335	-0.150938	-0.283496	0.681805	-0.364926	-0.288186	0.612149	-0.360662	-0.276623	0.971623	-0.195520	-0.278134	0.971932	-0.295026	-0.084886	0.915530	-0.131660	-0.082526	0.927877	-0.359978	-0.253859	1.127440	-0.247016	-0.272687	1.341507	-0.237500	-0.121470	1.338557	-0.239318	-0.095698	1.303297	-0.235184	-0.198824	1.353497	-0.063018	-0.190223	1.375690	-0.413753	-0.204190	1.045153	-0.011971	-0.217178	1.066154	-0.471244	-0.182303	0.843412	0.084746	-0.216447	0.864615	-0.586401	-0.098680	1.489168	-0.180840	-0.112170	1.499826	-0.300380	-0.246310	1.423191	-0.232145	-0.168167	1.050095	-0.432830	-0.161690	1.026284	-0.066658	
3	0.0300	-0.106490	0.041957	-0.152652	-0.147590	0.028540	-0.089034	-0.157139	0.052595	-0.127925	-0.110493	0.043602	-0.355027	-0.147190	0.024095	-0.428055	-0.159240	0.051311	-0.385120	-0.302421	0.050720	-0.161992	-0.308913	0.049092	-0.357227	-0.255425	0.068721	-0.116858	-0.260639	0.068997	-0.397185	-0.231954	0.088025	-0.196904	-0.238719	0.078913	-0.318555	-0.250377	0.035407	-0.191783	-0.266867	0.038880	-0.329110	-0.202208	0.460805	-0.119432	-0.207596	0.441573	-0.221659	-0.208126	0.453276	-0.288304	-0.204354	0.466723	-0.396149	-0.235681	0.413049	-0.107012	-0.238059	0.412638	-0.411209	-0.187860	0.395411	-0.150605	-0.188021	0.395043	-0.355860	-0.200271	0.305889	-0.164746	-0.210713	0.195893	-0.357155	-0.177743	0.659502	-0.078156	-0.189954	0.663487	-0.430284	-0.074573	0.710346	-0.153482	-0.099353	0.617646	-0.156001	-0.076502	0.716883	-0.356135	-0.102652	0.618552	-0.354633	-0.285372	0.681540	-0.146802	-0.285493	0.606316	-0.150987	-0.283473	0.681789	-0.365004	-0.288161	0.612138	-0.360721	-0.276645	0.971617	-0.195594	-0.278127	0.971919	-0.295106	-0.084924	0.915538	-0.131713	-0.082482	0.927937	-0.360029	-0.253898	1.127390	-0.247037	-0.272827	1.341458	-0.237545	-0.121662	1.338573	-0.239386	-0.095819	1.303389	-0.235227	-0.198965	1.353541	-0.063046	-0.190415	1.375639	-0.413862	-0.204238	1.045203	-0.011943	-0.217157	1.066090	-0.471241	-0.182302	0.843482	0.084775	-0.216342	0.864542	-0.586361	-0.098716	1.489051	-0.180936	-0.112205	1.499857	-0.300436	-0.246471	1.423221	-0.232227	-0.168150	1.050058	-0.432819	-0.161710	1.026333	-0.066626	
4	0.0400	-0.106114	0.042493	-0.152272	-0.146436	0.029164	-0.089431	-0.157137	0.052602	-0.127939	-0.110496	0.043600	-0.355028	-0.146290	0.024886	-0.428170	-0.159271	0.051319	-0.385112	-0.302381	0.050679	-0.161996	-0.308925	0.049093	-0.357237	-0.255466	0.068332	-0.116466	-0.260900	0.069146	-0.397288	-0.232262	0.087501	-0.197498	-0.236558	0.078138	-0.319292	-0.250374	0.035393	-0.191783	-0.266866	0.038875	-0.329105	-0.202212	0.460813	-0.119461	-0.207603	0.441596	-0.221696	-0.208121	0.453272	-0.288360	-0.204327	0.466696	-0.396187	-0.235516	0.413089	-0.106962	-0.237926	0.412667	-0.411324	-0.187858	0.395400	-0.150624	-0.188013	0.395030	-0.355870	-0.200253	0.305877	-0.164773	-0.210746	0.195839	-0.357161	-0.177293	0.659300	-0.077985	-0.190660	0.663236	-0.430766	-0.074573	0.710312	-0.153516	-0.099334	0.617653	-0.156048	-0.076612	0.716804	-0.356056	-0.102628	0.618545	-0.354661	-0.285391	0.681662	-0.146738	-0.285480	0.606318	-0.151038	-0.283440	0.681932	-0.365326	-0.288149	0.612138	-0.360777	-0.276627	0.971680	-0.195765	-0.278097	0.971918	-0.295126	-0.084944	0.915543	-0.131782	-0.082432	0.927914	-0.360049	-0.253943	1.127350	-0.247098	-0.272961	1.341352	-0.237493	-0.121760	1.338746	-0.239457	-0.095960	1.303463	-0.235260	-0.199108	1.353586	-0.063108	-0.190589	1.375620	-0.413884	-0.204259	1.045265	-0.011914	-0.216826	1.066003	-0.471372	-0.182275	0.843564	0.084820	-0.216249	0.864465	-0.586337	-0.098775	1.488930	-0.180996	-0.112244	1.499916	-0.300470	-0.246642	1.423235	-0.232321	-0.168638	1.050146	-0.432545	-0.161742	1.026380	-0.066626	
5	0.0500	-0.106104	0.042496	-0.152305	-0.146430	0.029140	-0.089483	-0.157162	0.052554	-0.127966	-0.110515	0.043560	-0.355083	-0.146330	0.024771	-0.428279	-0.159263	0.051220	-0.385223	-0.302307	0.050604	-0.162083	-0.308817	0.049100	-0.357232	-0.256284	0.068302	-0.117305	-0.260848	0.069121	-0.397488	-0.231955	0.087414	-0.197157	-0.238327	0.078372	-0.318277	-0.250265	0.035372	-0.191984	-0.266722	0.038779	-0.328988	-0.201936	0.460846	-0.119497	-0.207956	0.441597	-0.221585	-0.208139	0.453375	-0.288532	-0.204485	0.466688	-0.396081	-0.234966	0.413176	-0.107034	-0.238082	0.412620	-0.411277	-0.187606	0.395511	-0.150618	-0.187639	0.395353	-0.356342	-0.200167	0.305863	-0.164799	-0.210798	0.195779	-0.357178	-0.177316	0.659426	-0.078136	-0.190260	0.663111	-0.430947	-0.074696	0.710268	-0.153531	-0.099434	0.617565	-0.156085	-0.076651	0.716765	-0.356088	-0.102644	0.618497	-0.354718	-0.285228	0.681653	-0.146777	-0.285304	0.606276	-0.151075	-0.283390	0.681856	-0.365331	-0.288055	0.612046	-0.360825	-0.276754	0.971670	-0.195855	-0.278078	0.971836	-0.295206	-0.085366	0.915374	-0.131900	-0.082455	0.927772	-0.360152	-0.254042	1.127425	-0.247182	-0.273388	1.341349	-0.237639	-0.121871	1.338788	-0.239454	-0.096082	1.303466	-0.235250	-0.199574	1.353722	-0.063153	-0.191069	1.375532	-0.414008	-0.204263	1.045468	-0.011924	-0.217044	1.065761	-0.471409	-0.182224	0.843681	0.084866	-0.215814	0.864286	-0.586556	-0.099287	1.488758	-0.180945	-0.112180	1.500055	-0.300353	-0.247135	1.423397	-0.232538	-0.168450	1.049965	-0.432829	-0.161924	1.026569	-0.066420	
6	0.0600	-0.106104	0.042516	-0.152335	-0.146434	0.029144	-0.089491	-0.157163	0.052570	-0.127983	-0.110510	0.043562	-0.355106	-0.146337	0.024761	-0.428307	-0.159264	0.051217	-0.385234	-0.302358	0.050607	-0.162114	-0.308858	0.049082	-0.357251	-0.256319	0.068337	-0.117338	-0.260814	0.069111	-0.397505	-0.232006	0.087421	-0.197140	-0.238229	0.078352	-0.318415	-0.250228	0.035376	-0.192031	-0.266693	0.038751	-0.329000	-0.201866	0.460857	-0.119533	-0.207931	0.441611	-0.221609	-0.208135	0.453358	-0.288572	-0.204384	0.466634	-0.396189	-0.234817	0.413206	-0.107055	-0.238027	0.412548	-0.411369	-0.187567	0.395526	-0.150632	-0.187998	0.395395	-0.356261	-0.200236	0.305815	-0.164793	-0.210862	0.195749	-0.357240	-0.177363	0.659423	-0.078200	-0.190162	0.663074	-0.431033	-0.074741	0.710228	-0.153549	-0.099430	0.617557	-0.156103	-0.076619	0.716759	-0.356120	-0.102627	0.618481	-0.354777	-0.285328	0.681587	-0.146814	-0.285366	0.606229	-0.151129	-0.283425	0.681809	-0.365403	-0.288081	0.611992	-0.360880	-0.276744	0.971583	-0.195953	-0.278162	0.971783	-0.295259	-0.085461	0.915367	-0.131987	-0.082496	0.927767	-0.360191	-0.254108	1.127322	-0.247237	-0.273495	1.341231	-0.237737	-0.122037	1.338848	-0.239520	-0.096272	1.303519	-0.235321	-0.199625	1.353636	-0.063285	-0.191153	1.375369	-0.414111	-0.204297	1.045400	-0.011931	-0.217058	1.065641	-0.471433	-0.182140	0.843668	0.084892	-0.215979	0.864145	-0.586467	-0.099447	1.488616	-0.180982	-0.112191	1.499970	-0.300409	-0.247235	1.423346	-0.232685	-0.168414	1.049925	-0.432838	-0.161928	1.026640	-0.066378	
7	0.0700	-0.106112	0.042504	-0.152341	-0.146433	0.029162	-0.089489	-0.157151	0.052564	-0.127991	-0.110520	0.043570	-0.355117	-0.146335	0.024782	-0.428317	-0.159270	0.051207	-0.385245	-0.302361	0.050595	-0.162107	-0.308844	0.049068	-0.357268	-0.256316	0.068318	-0.117380	-0.260801	0.069089	-0.397550	-0.231984	0.087368	-0.197164	-0.236524	0.078139	-0.319490	-0.250192	0.035381	-0.192072	-0.266677	0.038737	-0.329027	-0.201820	0.460859	-0.119563	-0.207911	0.441594	-0.221636	-0.208132	0.453351	-0.288593	-0.204368	0.466624	-0.396215	-0.234709	0.413222	-0.107087	-0.238013	0.412539	-0.411416	-0.187477	0.395555	-0.150661	-0.188032	0.395387	-0.356285	-0.200229	0.305825	-0.164819	-0.210831	0.195763	-0.357230	-0.177374	0.659436	-0.078234	-0.190183	0.663069	-0.431043	-0.074652	0.710264	-0.153551	-0.099406	0.617577	-0.156138	-0.076564	0.716771	-0.356165	-0.102634	0.618448	-0.354806	-0.285320	0.681566	-0.146854	-0.285350	0.606201	-0.151182	-0.283424	0.681801	-0.365485	-0.288061	0.611976	-0.360936	-0.276758	0.971570	-0.196045	-0.278172	0.971769	-0.295354	-0.085495	0.915353	-0.132033	-0.082359	0.927802	-0.360217	-0.254167	1.127288	-0.247265	-0.273665	1.341167	-0.237809	-0.122222	1.338894	-0.239612	-0.096403	1.303590	-0.235344	-0.199758	1.353685	-0.063317	-0.191385	1.375340	-0.414184	-0.204257	1.045441	-0.011909	-0.217079	1.065562	-0.471410	-0.182038	0.843753	0.084974	-0.215920	0.864023	-0.586393	-0.099619	1.488453	-0.181063	-0.112252	1.499970	-0.300447	-0.247407	1.423378	-0.232778	-0.168380	1.049852	-0.432833	-0.161927	1.026697	-0.066307	
